<svg width="16" height="16" viewBox="0 0 16 16" fill="none" xmlns="http://www.w3.org/2000/svg">
<path fill-rule="evenodd" clip-rule="evenodd" d="M4.66667 0.416667V4.25C4.66667 4.48 4.48 4.66667 4.25 4.66667H0.416667C0.186667 4.66667 0 4.48 0 4.25V0.416667C0 0.186667 0.186667 0 0.416667 0H4.25C4.48 0 4.66667 0.186667 4.66667 0.416667Z" fill="white"/>
<path fill-rule="evenodd" clip-rule="evenodd" d="M4.66667 0.416667V4.25C4.66667 4.48 4.48 4.66667 4.25 4.66667H0.416667C0.186667 4.66667 0 4.48 0 4.25V0.416667C0 0.186667 0.186667 0 0.416667 0H4.25C4.48 0 4.66667 0.186667 4.66667 0.416667ZM1.66667 1.66667H2.28333V2.00533H2.29767C2.41967 1.847 2.67267 1.646 3.08333 1.646C3.70833 1.646 4 1.936 4 2.66667V4H3.33333V2.91667C3.33333 2.43767 3.224 2.29167 2.87733 2.29167C2.5 2.29167 2.33333 2.58333 2.33333 3V4H1.66667V1.66667ZM0.666667 4H1.33333V1.66667H0.666667V4ZM1.445 1C1.445 1.24567 1.24567 1.445 1 1.445C0.754333 1.445 0.555 1.24567 0.555 1C0.555 0.754333 0.754333 0.555 1 0.555C1.24567 0.555 1.445 0.754333 1.445 1Z" fill="#0073B2"/>
<path d="M14 0H1.33333C0.596954 0 0 0.596954 0 1.33333V14C0 14.7364 0.596954 15.3333 1.33333 15.3333H14C14.7364 15.3333 15.3333 14.7364 15.3333 14V1.33333C15.3333 0.596954 14.7364 0 14 0Z" transform="translate(0.0972347 0.097229) scale(0.2917)" fill="white"/>
<path fill-rule="evenodd" clip-rule="evenodd" d="M0 1.33663C0 0.59843 0.598018 0 1.33663 0H14.6634C15.4016 0 16 0.598018 16 1.33663V14.6634C16 15.4016 15.402 16 14.6634 16H1.33663C0.59843 16 0 15.402 0 14.6634V1.33663ZM6.33333 6.1H8.5V7.18867C8.81233 6.56267 9.61267 6 10.815 6C13.1197 6 13.6667 7.246 13.6667 9.53233V13.7667H11.3333V10.053C11.3333 8.751 11.021 8.01667 10.2267 8.01667C9.125 8.01667 8.66667 8.80833 8.66667 10.053V13.7667H6.33333V6.1ZM2.33333 13.6667H4.66667V6H2.33333V13.6667ZM5 3.5C5 4.32833 4.32833 5 3.5 5C2.67167 5 2 4.32833 2 3.5C2 2.67167 2.67167 2 3.5 2C4.32833 2 5 2.67167 5 3.5Z" transform="scale(0.2917)" fill="#0077B5"/>
<path fill-rule="evenodd" clip-rule="evenodd" d="M6.493 0H0.527667C0.242667 0 0 0.225667 0 0.503667V6.496C0 6.77433 0.159333 7 0.444333 7H6.40967C6.69533 7 7 6.77433 7 6.496V0.503667C7 0.225667 6.77867 0 6.493 0Z" fill="white"/>
<path fill-rule="evenodd" clip-rule="evenodd" d="M6.493 0H0.527667C0.242667 0 0 0.225667 0 0.503667V6.496C0 6.77433 0.159333 7 0.444333 7H6.40967C6.69533 7 7 6.77433 7 6.496V0.503667C7 0.225667 6.77867 0 6.493 0ZM2.66667 2.66667H3.609V3.147H3.61933C3.763 2.888 4.18733 2.625 4.712 2.625C5.719 2.625 6 3.15967 6 4.15V6H5V4.33233C5 3.889 4.823 3.5 4.409 3.5C3.90633 3.5 3.66667 3.84033 3.66667 4.399V6H2.66667V2.66667ZM1 6H2V2.66667H1V6ZM2.125 1.5C2.125 1.84533 1.84533 2.125 1.5 2.125C1.15467 2.125 0.875 1.84533 0.875 1.5C0.875 1.15467 1.15467 0.875 1.5 0.875C1.84533 0.875 2.125 1.15467 2.125 1.5Z" fill="#0077B5"/>
<path d="M14 0H1.33333C0.596954 0 0 0.596954 0 1.33333V14C0 14.7364 0.596954 15.3333 1.33333 15.3333H14C14.7364 15.3333 15.3333 14.7364 15.3333 14V1.33333C15.3333 0.596954 14.7364 0 14 0Z" transform="translate(0.145834 0.145844) scale(0.4375)" fill="white"/>
<path fill-rule="evenodd" clip-rule="evenodd" d="M0 1.33663C0 0.59843 0.598018 0 1.33663 0H14.6634C15.4016 0 16 0.598018 16 1.33663V14.6634C16 15.4016 15.402 16 14.6634 16H1.33663C0.59843 16 0 15.402 0 14.6634V1.33663ZM6.33333 6.1H8.5V7.18867C8.81233 6.56267 9.61267 6 10.815 6C13.1197 6 13.6667 7.246 13.6667 9.53233V13.7667H11.3333V10.053C11.3333 8.751 11.021 8.01667 10.2267 8.01667C9.125 8.01667 8.66667 8.80833 8.66667 10.053V13.7667H6.33333V6.1ZM2.33333 13.6667H4.66667V6H2.33333V13.6667ZM5 3.5C5 4.32833 4.32833 5 3.5 5C2.67167 5 2 4.32833 2 3.5C2 2.67167 2.67167 2 3.5 2C4.32833 2 5 2.67167 5 3.5Z" transform="scale(0.4375)" fill="#0077B5"/>
<path fill-rule="evenodd" clip-rule="evenodd" d="M8.45833 0H0.875C0.391667 0 0 0.391667 0 0.875V8.45833C0 8.94167 0.391667 9.33333 0.875 9.33333H8.45833C8.94167 9.33333 9.33333 8.94167 9.33333 8.45833V0.875C9.33333 0.391667 8.94167 0 8.45833 0Z" fill="white"/>
<path fill-rule="evenodd" clip-rule="evenodd" d="M8.45833 0H0.875C0.391667 0 0 0.391667 0 0.875V8.45833C0 8.94167 0.391667 9.33333 0.875 9.33333H8.45833C8.94167 9.33333 9.33333 8.94167 9.33333 8.45833V0.875C9.33333 0.391667 8.94167 0 8.45833 0ZM4.95823 4.00833V3.33333H3.66657V8H4.9999V5.79167C4.9999 5.201 5.2209 4.625 5.88323 4.625C6.4889 4.625 6.66657 4.98833 6.66657 5.625V8H7.9999V4.99167C7.9999 3.91667 7.43057 3.29167 6.3379 3.29167C5.6409 3.29167 5.14957 3.675 4.95823 4.00833ZM1.33333 8H2.66667V3.33333H1.33333V8ZM2 1.22167C1.57 1.22167 1.22167 1.57 1.22167 2C1.22167 2.43 1.57 2.77833 2 2.77833C2.43 2.77833 2.77833 2.43 2.77833 2C2.77833 1.57 2.43 1.22167 2 1.22167Z" fill="#0077B5"/>
<path d="M14 0H1.33333C0.596954 0 0 0.596954 0 1.33333V14C0 14.7364 0.596954 15.3333 1.33333 15.3333H14C14.7364 15.3333 15.3333 14.7364 15.3333 14V1.33333C15.3333 0.596954 14.7364 0 14 0Z" transform="translate(0.194433 0.194427) scale(0.5833)" fill="white"/>
<path fill-rule="evenodd" clip-rule="evenodd" d="M0 1.33663C0 0.59843 0.598018 0 1.33663 0H14.6634C15.4016 0 16 0.598018 16 1.33663V14.6634C16 15.4016 15.402 16 14.6634 16H1.33663C0.59843 16 0 15.402 0 14.6634V1.33663ZM6.33333 6.1H8.5V7.18867C8.81233 6.56267 9.61267 6 10.815 6C13.1197 6 13.6667 7.246 13.6667 9.53233V13.7667H11.3333V10.053C11.3333 8.751 11.021 8.01667 10.2267 8.01667C9.125 8.01667 8.66667 8.80833 8.66667 10.053V13.7667H6.33333V6.1ZM2.33333 13.6667H4.66667V6H2.33333V13.6667ZM5 3.5C5 4.32833 4.32833 5 3.5 5C2.67167 5 2 4.32833 2 3.5C2 2.67167 2.67167 2 3.5 2C4.32833 2 5 2.67167 5 3.5Z" transform="scale(0.5833)" fill="#0077B5"/>
<path fill-rule="evenodd" clip-rule="evenodd" d="M0.933333 11.3333H10.4C10.9153 11.3333 11.3333 10.9153 11.3333 10.4V0.933333C11.3333 0.418 10.9153 0 10.4 0H0.933333C0.418 0 0 0.418 0 0.933333V10.4C0 10.9153 0.418 11.3333 0.933333 11.3333Z" fill="white"/>
<path fill-rule="evenodd" clip-rule="evenodd" d="M0.933333 11.3333H10.4C10.9153 11.3333 11.3333 10.9153 11.3333 10.4V0.933333C11.3333 0.418 10.9153 0 10.4 0H0.933333C0.418 0 0 0.418 0 0.933333V10.4C0 10.9153 0.418 11.3333 0.933333 11.3333ZM4.33333 4.33333H5.91667V5.13033C6.129 4.70467 6.74733 4.25 7.565 4.25C9.13233 4.25 9.66667 4.95833 9.66667 6.64067V9.66667H8V6.99467C8 6.10933 7.827 5.625 7.18067 5.625C6.307 5.625 6 6.289 6 6.99467V9.66667H4.33333V4.33333ZM1.66667 9.66667H3.33333V4.33333H1.66667V9.66667ZM3.51667 2.5C3.51667 3.06133 3.06133 3.51667 2.5 3.51667C1.93867 3.51667 1.48333 3.06133 1.48333 2.5C1.48333 1.93833 1.93867 1.48333 2.5 1.48333C3.06133 1.48333 3.51667 1.93833 3.51667 2.5Z" fill="#0077B5"/>
<path d="M14 0H1.33333C0.596954 0 0 0.596954 0 1.33333V14C0 14.7364 0.596954 15.3333 1.33333 15.3333H14C14.7364 15.3333 15.3333 14.7364 15.3333 14V1.33333C15.3333 0.596954 14.7364 0 14 0Z" transform="translate(0.236099 0.236115) scale(0.7083)" fill="white"/>
<path fill-rule="evenodd" clip-rule="evenodd" d="M0 1.33663C0 0.59843 0.598018 0 1.33663 0H14.6634C15.4016 0 16 0.598018 16 1.33663V14.6634C16 15.4016 15.402 16 14.6634 16H1.33663C0.59843 16 0 15.402 0 14.6634V1.33663ZM6.33333 6.1H8.5V7.18867C8.81233 6.56267 9.61267 6 10.815 6C13.1197 6 13.6667 7.246 13.6667 9.53233V13.7667H11.3333V10.053C11.3333 8.751 11.021 8.01667 10.2267 8.01667C9.125 8.01667 8.66667 8.80833 8.66667 10.053V13.7667H6.33333V6.1ZM2.33333 13.6667H4.66667V6H2.33333V13.6667ZM5 3.5C5 4.32833 4.32833 5 3.5 5C2.67167 5 2 4.32833 2 3.5C2 2.67167 2.67167 2 3.5 2C4.32833 2 5 2.67167 5 3.5Z" transform="scale(0.7083)" fill="#0077B5"/>
<path fill-rule="evenodd" clip-rule="evenodd" d="M13.3333 1.16667V12.1667C13.3333 12.8113 12.8113 13.3333 12.1667 13.3333H1.16667C0.522 13.3333 0 12.8113 0 12.1667V1.16667C0 0.522 0.522 0 1.16667 0H12.1667C12.8113 0 13.3333 0.522 13.3333 1.16667Z" fill="white"/>
<path fill-rule="evenodd" clip-rule="evenodd" d="M13.3333 1.16667V12.1667C13.3333 12.8113 12.8113 13.3333 12.1667 13.3333H1.16667C0.522 13.3333 0 12.8113 0 12.1667V1.16667C0 0.522 0.522 0 1.16667 0H12.1667C12.8113 0 13.3333 0.522 13.3333 1.16667ZM5 5H6.95833V6.111C7.18067 5.71534 7.66667 4.9 8.98567 4.9C11.0457 4.9 11.3333 6.22667 11.3333 7.989V11.3333H9.33333V8.33934C9.33333 7.39434 9.18067 6.625 8.30733 6.625C7.25 6.625 7 7.31867 7 8.172V11.3333H5V5ZM2 11.3333H4V5H2V11.3333ZM4.21699 2.99999C4.21699 3.67199 3.67233 4.21666 3.00033 4.21666C2.32799 4.21666 1.78333 3.67199 1.78333 2.99999C1.78333 2.32799 2.32799 1.78333 3.00033 1.78333C3.67233 1.78333 4.21699 2.32799 4.21699 2.99999Z" fill="#0077B5"/>
<path d="M14 0H1.33333C0.596954 0 0 0.596954 0 1.33333V14C0 14.7364 0.596954 15.3333 1.33333 15.3333H14C14.7364 15.3333 15.3333 14.7364 15.3333 14V1.33333C15.3333 0.596954 14.7364 0 14 0Z" transform="translate(0.277765 0.277771) scale(0.8333)" fill="white"/>
<path fill-rule="evenodd" clip-rule="evenodd" d="M0 1.33663C0 0.59843 0.598018 0 1.33663 0H14.6634C15.4016 0 16 0.598018 16 1.33663V14.6634C16 15.4016 15.402 16 14.6634 16H1.33663C0.59843 16 0 15.402 0 14.6634V1.33663ZM6.33333 6.1H8.5V7.18867C8.81233 6.56267 9.61267 6 10.815 6C13.1197 6 13.6667 7.246 13.6667 9.53233V13.7667H11.3333V10.053C11.3333 8.751 11.021 8.01667 10.2267 8.01667C9.125 8.01667 8.66667 8.80833 8.66667 10.053V13.7667H6.33333V6.1ZM2.33333 13.6667H4.66667V6H2.33333V13.6667ZM5 3.5C5 4.32833 4.32833 5 3.5 5C2.67167 5 2 4.32833 2 3.5C2 2.67167 2.67167 2 3.5 2C4.32833 2 5 2.67167 5 3.5Z" transform="scale(0.8333)" fill="#0077B5"/>
<path d="M14 0H1.33333C0.596954 0 0 0.596954 0 1.33333V14C0 14.7364 0.596954 15.3333 1.33333 15.3333H14C14.7364 15.3333 15.3333 14.7364 15.3333 14V1.33333C15.3333 0.596954 14.7364 0 14 0Z" transform="translate(0.333334 0.333344)" fill="white"/>
<path fill-rule="evenodd" clip-rule="evenodd" d="M0 1.33663C0 0.59843 0.598018 0 1.33663 0H14.6634C15.4016 0 16 0.598018 16 1.33663V14.6634C16 15.4016 15.402 16 14.6634 16H1.33663C0.59843 16 0 15.402 0 14.6634V1.33663ZM6.33333 6.1H8.5V7.18867C8.81233 6.56267 9.61267 6 10.815 6C13.1197 6 13.6667 7.246 13.6667 9.53233V13.7667H11.3333V10.053C11.3333 8.751 11.021 8.01667 10.2267 8.01667C9.125 8.01667 8.66667 8.80833 8.66667 10.053V13.7667H6.33333V6.1ZM2.33333 13.6667H4.66667V6H2.33333V13.6667ZM5 3.5C5 4.32833 4.32833 5 3.5 5C2.67167 5 2 4.32833 2 3.5C2 2.67167 2.67167 2 3.5 2C4.32833 2 5 2.67167 5 3.5Z" fill="black"/>
</svg>
