<svg width="600" height="400" viewBox="0 0 600 400" fill="none" xmlns="http://www.w3.org/2000/svg">
<path d="M41.6667 4L38.7292 1.0625L32.7917 7.75C28.5 2.91667 22.5625 0 15.8542 0C9.83333 0 4.3125 2.41667 0 6.25L2.95833 9.20833C6.5 6.10417 10.9792 4.16667 15.8542 4.16667C21.5625 4.16667 26.4583 6.79167 29.9583 10.9167L23.9583 17.6667L15.625 9.33333L0 24.9792L3.125 28.1042L15.625 15.5833L23.9583 23.9167L32.3958 14.4375C33.9583 17.25 35 20.4792 35.3958 23.9167H39.5833C39.125 19.125 37.6042 14.7708 35.3333 11.125L41.6667 4Z" transform="translate(4.16669 10.4166)" fill="#F5F5F5" fill-opacity="0.2"/>
<path d="M18.75 0V41.6667C8.1875 40.625 0 31.6875 0 20.8333C0 9.97917 8.1875 1.04167 18.75 0ZM22.9792 0V18.7292H41.6667C40.6875 8.85417 32.8333 0.979167 22.9792 0ZM22.9792 22.9375V41.6667C32.8542 40.6875 40.6875 32.8125 41.6667 22.9375H22.9792Z" transform="translate(53.7795 55.4537)" fill="#F5F5F5" fill-opacity="0.2"/>
<path d="M0 9.48438L4.16667 13.651C14.5208 3.29688 31.3125 3.29688 41.6667 13.651L45.8333 9.48438C33.1875 -3.16146 12.6667 -3.16146 0 9.48438ZM16.6667 26.151L22.9167 32.401L29.1667 26.151C25.7292 22.6927 20.125 22.6927 16.6667 26.151ZM8.33333 17.8177L12.5 21.9844C18.25 16.2344 27.5833 16.2344 33.3333 21.9844L37.5 17.8177C29.4583 9.77604 16.3958 9.77604 8.33333 17.8177Z" transform="translate(2.08331 109.266)" fill="#F5F5F5" fill-opacity="0.2"/>
<path d="M15.4167 22.0833L5.83333 12.5L15.4167 2.91667L12.5 0L0 12.5L12.5 25L15.4167 22.0833ZM26.25 22.0833L35.8333 12.5L26.25 2.91667L29.1667 0L41.6667 12.5L29.1667 25L26.25 22.0833Z" transform="translate(104.342 12.3156)" fill="#F5F5F5" fill-opacity="0.2"/>
<path d="M0 29.6927V37.5052H7.8125L30.8542 14.4635L23.0417 6.65104L0 29.6927ZM36.8958 8.42188C37.7083 7.60938 37.7083 6.29688 36.8958 5.48438L32.0208 0.609375C31.2083 -0.203125 29.8958 -0.203125 29.0833 0.609375L25.2708 4.42188L33.0833 12.2344L36.8958 8.42188Z" transform="translate(106.25 106.245)" fill="#F5F5F5" fill-opacity="0.2"/>
<path d="M13.5417 29.1667H9.375V14.5833H13.5417V29.1667ZM21.875 29.1667H17.7083V8.33333H21.875V29.1667ZM30.2083 29.1667H26.0417V20.8333H30.2083V29.1667ZM35.4167 33.5417H4.16667V4.16667H35.4167V33.5417ZM35.4167 0H4.16667C1.875 0 0 1.875 0 4.16667V33.3333C0 35.625 1.875 37.5 4.16667 37.5H35.4167C37.7083 37.5 39.5833 35.625 39.5833 33.3333V4.16667C39.5833 1.875 37.7083 0 35.4167 0Z" transform="translate(55.2083 156.25)" fill="#F5F5F5" fill-opacity="0.2"/>
<path d="M29.1667 22.9167H18.75V33.3333H29.1667V22.9167ZM27.0833 0V4.16667H10.4167V0H6.25V4.16667H4.16667C1.85417 4.16667 0.0208333 6.04167 0.0208333 8.33333L0 37.5C0 39.7917 1.85417 41.6667 4.16667 41.6667H33.3333C35.625 41.6667 37.5 39.7917 37.5 37.5V8.33333C37.5 6.04167 35.625 4.16667 33.3333 4.16667H31.25V0H27.0833ZM33.3333 37.5H4.16667V14.5833H33.3333V37.5Z" transform="translate(156.25 52.0834)" fill="#F5F5F5" fill-opacity="0.2"/>
<path d="M40.3125 12.5833C38.8958 5.39583 32.5833 0 25 0C18.9792 0 13.75 3.41667 11.1458 8.41667C4.875 9.08333 0 14.3958 0 20.8333C0 27.7292 5.60417 33.3333 12.5 33.3333H39.5833C45.3333 33.3333 50 28.6667 50 22.9167C50 17.4167 45.7292 12.9583 40.3125 12.5833ZM29.1667 18.75V27.0833H20.8333V18.75H14.5833L25 8.33333L35.4167 18.75H29.1667Z" transform="translate(150 158)" fill="#F5F5F5" fill-opacity="0.2"/>
<path d="M41.6667 4L38.7292 1.0625L32.7917 7.75C28.5 2.91667 22.5625 0 15.8542 0C9.83333 0 4.3125 2.41667 0 6.25L2.95833 9.20833C6.5 6.10417 10.9792 4.16667 15.8542 4.16667C21.5625 4.16667 26.4583 6.79167 29.9583 10.9167L23.9583 17.6667L15.625 9.33333L0 24.9792L3.125 28.1042L15.625 15.5833L23.9583 23.9167L32.3958 14.4375C33.9583 17.25 35 20.4792 35.3958 23.9167H39.5833C39.125 19.125 37.6042 14.7708 35.3333 11.125L41.6667 4Z" transform="translate(204.167 10.4166)" fill="#F5F5F5" fill-opacity="0.2"/>
<path d="M18.75 0V41.6667C8.1875 40.625 0 31.6875 0 20.8333C0 9.97917 8.1875 1.04167 18.75 0ZM22.9792 0V18.7292H41.6667C40.6875 8.85417 32.8333 0.979167 22.9792 0ZM22.9792 22.9375V41.6667C32.8542 40.6875 40.6875 32.8125 41.6667 22.9375H22.9792Z" transform="translate(253.78 55.4537)" fill="#F5F5F5" fill-opacity="0.2"/>
<path d="M0 9.48438L4.16667 13.651C14.5208 3.29688 31.3125 3.29688 41.6667 13.651L45.8333 9.48438C33.1875 -3.16146 12.6667 -3.16146 0 9.48438ZM16.6667 26.151L22.9167 32.401L29.1667 26.151C25.7292 22.6927 20.125 22.6927 16.6667 26.151ZM8.33333 17.8177L12.5 21.9844C18.25 16.2344 27.5833 16.2344 33.3333 21.9844L37.5 17.8177C29.4583 9.77604 16.3958 9.77604 8.33333 17.8177Z" transform="translate(202.083 109.266)" fill="#F5F5F5" fill-opacity="0.2"/>
<path d="M15.4167 22.0833L5.83333 12.5L15.4167 2.91667L12.5 0L0 12.5L12.5 25L15.4167 22.0833ZM26.25 22.0833L35.8333 12.5L26.25 2.91667L29.1667 0L41.6667 12.5L29.1667 25L26.25 22.0833Z" transform="translate(304.342 12.3156)" fill="#F5F5F5" fill-opacity="0.2"/>
<path d="M0 29.6927V37.5052H7.8125L30.8542 14.4635L23.0417 6.65104L0 29.6927ZM36.8958 8.42188C37.7083 7.60938 37.7083 6.29688 36.8958 5.48438L32.0208 0.609375C31.2083 -0.203125 29.8958 -0.203125 29.0833 0.609375L25.2708 4.42188L33.0833 12.2344L36.8958 8.42188Z" transform="translate(306.25 106.245)" fill="#F5F5F5" fill-opacity="0.2"/>
<path d="M13.5417 29.1667H9.375V14.5833H13.5417V29.1667ZM21.875 29.1667H17.7083V8.33333H21.875V29.1667ZM30.2083 29.1667H26.0417V20.8333H30.2083V29.1667ZM35.4167 33.5417H4.16667V4.16667H35.4167V33.5417ZM35.4167 0H4.16667C1.875 0 0 1.875 0 4.16667V33.3333C0 35.625 1.875 37.5 4.16667 37.5H35.4167C37.7083 37.5 39.5833 35.625 39.5833 33.3333V4.16667C39.5833 1.875 37.7083 0 35.4167 0Z" transform="translate(255.208 156.25)" fill="#F5F5F5" fill-opacity="0.2"/>
<path d="M29.1667 22.9167H18.75V33.3333H29.1667V22.9167ZM27.0833 0V4.16667H10.4167V0H6.25V4.16667H4.16667C1.85417 4.16667 0.0208333 6.04167 0.0208333 8.33333L0 37.5C0 39.7917 1.85417 41.6667 4.16667 41.6667H33.3333C35.625 41.6667 37.5 39.7917 37.5 37.5V8.33333C37.5 6.04167 35.625 4.16667 33.3333 4.16667H31.25V0H27.0833ZM33.3333 37.5H4.16667V14.5833H33.3333V37.5Z" transform="translate(356.25 52.0834)" fill="#F5F5F5" fill-opacity="0.2"/>
<path d="M40.3125 12.5833C38.8958 5.39583 32.5833 0 25 0C18.9792 0 13.75 3.41667 11.1458 8.41667C4.875 9.08333 0 14.3958 0 20.8333C0 27.7292 5.60417 33.3333 12.5 33.3333H39.5833C45.3333 33.3333 50 28.6667 50 22.9167C50 17.4167 45.7292 12.9583 40.3125 12.5833ZM29.1667 18.75V27.0833H20.8333V18.75H14.5833L25 8.33333L35.4167 18.75H29.1667Z" transform="translate(350 158)" fill="#F5F5F5" fill-opacity="0.2"/>
<path d="M41.6667 4L38.7292 1.0625L32.7917 7.75C28.5 2.91667 22.5625 0 15.8542 0C9.83333 0 4.3125 2.41667 0 6.25L2.95833 9.20833C6.5 6.10417 10.9792 4.16667 15.8542 4.16667C21.5625 4.16667 26.4583 6.79167 29.9583 10.9167L23.9583 17.6667L15.625 9.33333L0 24.9792L3.125 28.1042L15.625 15.5833L23.9583 23.9167L32.3958 14.4375C33.9583 17.25 35 20.4792 35.3958 23.9167H39.5833C39.125 19.125 37.6042 14.7708 35.3333 11.125L41.6667 4Z" transform="translate(404.167 10.4166)" fill="#F5F5F5" fill-opacity="0.2"/>
<path d="M18.75 0V41.6667C8.1875 40.625 0 31.6875 0 20.8333C0 9.97917 8.1875 1.04167 18.75 0ZM22.9792 0V18.7292H41.6667C40.6875 8.85417 32.8333 0.979167 22.9792 0ZM22.9792 22.9375V41.6667C32.8542 40.6875 40.6875 32.8125 41.6667 22.9375H22.9792Z" transform="translate(453.78 55.4537)" fill="#F5F5F5" fill-opacity="0.2"/>
<path d="M0 9.48438L4.16667 13.651C14.5208 3.29688 31.3125 3.29688 41.6667 13.651L45.8333 9.48438C33.1875 -3.16146 12.6667 -3.16146 0 9.48438ZM16.6667 26.151L22.9167 32.401L29.1667 26.151C25.7292 22.6927 20.125 22.6927 16.6667 26.151ZM8.33333 17.8177L12.5 21.9844C18.25 16.2344 27.5833 16.2344 33.3333 21.9844L37.5 17.8177C29.4583 9.77604 16.3958 9.77604 8.33333 17.8177Z" transform="translate(402.083 109.266)" fill="#F5F5F5" fill-opacity="0.2"/>
<path d="M15.4167 22.0833L5.83333 12.5L15.4167 2.91667L12.5 0L0 12.5L12.5 25L15.4167 22.0833ZM26.25 22.0833L35.8333 12.5L26.25 2.91667L29.1667 0L41.6667 12.5L29.1667 25L26.25 22.0833Z" transform="translate(504.342 12.3156)" fill="#F5F5F5" fill-opacity="0.2"/>
<path d="M0 29.6927V37.5052H7.8125L30.8542 14.4635L23.0417 6.65104L0 29.6927ZM36.8958 8.42188C37.7083 7.60938 37.7083 6.29688 36.8958 5.48438L32.0208 0.609375C31.2083 -0.203125 29.8958 -0.203125 29.0833 0.609375L25.2708 4.42188L33.0833 12.2344L36.8958 8.42188Z" transform="translate(506.25 106.245)" fill="#F5F5F5" fill-opacity="0.2"/>
<path d="M13.5417 29.1667H9.375V14.5833H13.5417V29.1667ZM21.875 29.1667H17.7083V8.33333H21.875V29.1667ZM30.2083 29.1667H26.0417V20.8333H30.2083V29.1667ZM35.4167 33.5417H4.16667V4.16667H35.4167V33.5417ZM35.4167 0H4.16667C1.875 0 0 1.875 0 4.16667V33.3333C0 35.625 1.875 37.5 4.16667 37.5H35.4167C37.7083 37.5 39.5833 35.625 39.5833 33.3333V4.16667C39.5833 1.875 37.7083 0 35.4167 0Z" transform="translate(455.208 156.25)" fill="#F5F5F5" fill-opacity="0.2"/>
<path d="M29.1667 22.9167H18.75V33.3333H29.1667V22.9167ZM27.0833 0V4.16667H10.4167V0H6.25V4.16667H4.16667C1.85417 4.16667 0.0208333 6.04167 0.0208333 8.33333L0 37.5C0 39.7917 1.85417 41.6667 4.16667 41.6667H33.3333C35.625 41.6667 37.5 39.7917 37.5 37.5V8.33333C37.5 6.04167 35.625 4.16667 33.3333 4.16667H31.25V0H27.0833ZM33.3333 37.5H4.16667V14.5833H33.3333V37.5Z" transform="translate(556.25 52.0834)" fill="#F5F5F5" fill-opacity="0.2"/>
<path d="M40.3125 12.5833C38.8958 5.39583 32.5833 0 25 0C18.9792 0 13.75 3.41667 11.1458 8.41667C4.875 9.08333 0 14.3958 0 20.8333C0 27.7292 5.60417 33.3333 12.5 33.3333H39.5833C45.3333 33.3333 50 28.6667 50 22.9167C50 17.4167 45.7292 12.9583 40.3125 12.5833ZM29.1667 18.75V27.0833H20.8333V18.75H14.5833L25 8.33333L35.4167 18.75H29.1667Z" transform="translate(550 158)" fill="#F5F5F5" fill-opacity="0.2"/>
<path d="M41.6667 4L38.7292 1.0625L32.7917 7.75C28.5 2.91667 22.5625 0 15.8542 0C9.83333 0 4.3125 2.41667 0 6.25L2.95833 9.20833C6.5 6.10417 10.9792 4.16667 15.8542 4.16667C21.5625 4.16667 26.4583 6.79167 29.9583 10.9167L23.9583 17.6667L15.625 9.33333L0 24.9792L3.125 28.1042L15.625 15.5833L23.9583 23.9167L32.3958 14.4375C33.9583 17.25 35 20.4792 35.3958 23.9167H39.5833C39.125 19.125 37.6042 14.7708 35.3333 11.125L41.6667 4Z" transform="translate(4.16669 210.417)" fill="#F5F5F5" fill-opacity="0.2"/>
<path d="M18.75 0V41.6667C8.1875 40.625 0 31.6875 0 20.8333C0 9.97917 8.1875 1.04167 18.75 0ZM22.9792 0V18.7292H41.6667C40.6875 8.85417 32.8333 0.979167 22.9792 0ZM22.9792 22.9375V41.6667C32.8542 40.6875 40.6875 32.8125 41.6667 22.9375H22.9792Z" transform="translate(53.7795 255.454)" fill="#F5F5F5" fill-opacity="0.2"/>
<path d="M0 9.48438L4.16667 13.651C14.5208 3.29688 31.3125 3.29688 41.6667 13.651L45.8333 9.48438C33.1875 -3.16146 12.6667 -3.16146 0 9.48438ZM16.6667 26.151L22.9167 32.401L29.1667 26.151C25.7292 22.6927 20.125 22.6927 16.6667 26.151ZM8.33333 17.8177L12.5 21.9844C18.25 16.2344 27.5833 16.2344 33.3333 21.9844L37.5 17.8177C29.4583 9.77604 16.3958 9.77604 8.33333 17.8177Z" transform="translate(2.08331 309.266)" fill="#F5F5F5" fill-opacity="0.2"/>
<path d="M15.4167 22.0833L5.83333 12.5L15.4167 2.91667L12.5 0L0 12.5L12.5 25L15.4167 22.0833ZM26.25 22.0833L35.8333 12.5L26.25 2.91667L29.1667 0L41.6667 12.5L29.1667 25L26.25 22.0833Z" transform="translate(104.342 212.316)" fill="#F5F5F5" fill-opacity="0.2"/>
<path d="M0 29.6927V37.5052H7.8125L30.8542 14.4635L23.0417 6.65104L0 29.6927ZM36.8958 8.42188C37.7083 7.60938 37.7083 6.29688 36.8958 5.48438L32.0208 0.609375C31.2083 -0.203125 29.8958 -0.203125 29.0833 0.609375L25.2708 4.42188L33.0833 12.2344L36.8958 8.42188Z" transform="translate(106.25 306.245)" fill="#F5F5F5" fill-opacity="0.2"/>
<path d="M13.5417 29.1667H9.375V14.5833H13.5417V29.1667ZM21.875 29.1667H17.7083V8.33333H21.875V29.1667ZM30.2083 29.1667H26.0417V20.8333H30.2083V29.1667ZM35.4167 33.5417H4.16667V4.16667H35.4167V33.5417ZM35.4167 0H4.16667C1.875 0 0 1.875 0 4.16667V33.3333C0 35.625 1.875 37.5 4.16667 37.5H35.4167C37.7083 37.5 39.5833 35.625 39.5833 33.3333V4.16667C39.5833 1.875 37.7083 0 35.4167 0Z" transform="translate(55.2083 356.25)" fill="#F5F5F5" fill-opacity="0.2"/>
<path d="M29.1667 22.9167H18.75V33.3333H29.1667V22.9167ZM27.0833 0V4.16667H10.4167V0H6.25V4.16667H4.16667C1.85417 4.16667 0.0208333 6.04167 0.0208333 8.33333L0 37.5C0 39.7917 1.85417 41.6667 4.16667 41.6667H33.3333C35.625 41.6667 37.5 39.7917 37.5 37.5V8.33333C37.5 6.04167 35.625 4.16667 33.3333 4.16667H31.25V0H27.0833ZM33.3333 37.5H4.16667V14.5833H33.3333V37.5Z" transform="translate(156.25 252.083)" fill="#F5F5F5" fill-opacity="0.2"/>
<path d="M40.3125 12.5833C38.8958 5.39583 32.5833 0 25 0C18.9792 0 13.75 3.41667 11.1458 8.41667C4.875 9.08333 0 14.3958 0 20.8333C0 27.7292 5.60417 33.3333 12.5 33.3333H39.5833C45.3333 33.3333 50 28.6667 50 22.9167C50 17.4167 45.7292 12.9583 40.3125 12.5833ZM29.1667 18.75V27.0833H20.8333V18.75H14.5833L25 8.33333L35.4167 18.75H29.1667Z" transform="translate(150 358)" fill="#F5F5F5" fill-opacity="0.2"/>
<path d="M41.6667 4L38.7292 1.0625L32.7917 7.75C28.5 2.91667 22.5625 0 15.8542 0C9.83333 0 4.3125 2.41667 0 6.25L2.95833 9.20833C6.5 6.10417 10.9792 4.16667 15.8542 4.16667C21.5625 4.16667 26.4583 6.79167 29.9583 10.9167L23.9583 17.6667L15.625 9.33333L0 24.9792L3.125 28.1042L15.625 15.5833L23.9583 23.9167L32.3958 14.4375C33.9583 17.25 35 20.4792 35.3958 23.9167H39.5833C39.125 19.125 37.6042 14.7708 35.3333 11.125L41.6667 4Z" transform="translate(204.167 210.417)" fill="#F5F5F5" fill-opacity="0.2"/>
<path d="M18.75 0V41.6667C8.1875 40.625 0 31.6875 0 20.8333C0 9.97917 8.1875 1.04167 18.75 0ZM22.9792 0V18.7292H41.6667C40.6875 8.85417 32.8333 0.979167 22.9792 0ZM22.9792 22.9375V41.6667C32.8542 40.6875 40.6875 32.8125 41.6667 22.9375H22.9792Z" transform="translate(253.78 255.454)" fill="#F5F5F5" fill-opacity="0.2"/>
<path d="M0 9.48438L4.16667 13.651C14.5208 3.29688 31.3125 3.29688 41.6667 13.651L45.8333 9.48438C33.1875 -3.16146 12.6667 -3.16146 0 9.48438ZM16.6667 26.151L22.9167 32.401L29.1667 26.151C25.7292 22.6927 20.125 22.6927 16.6667 26.151ZM8.33333 17.8177L12.5 21.9844C18.25 16.2344 27.5833 16.2344 33.3333 21.9844L37.5 17.8177C29.4583 9.77604 16.3958 9.77604 8.33333 17.8177Z" transform="translate(202.083 309.266)" fill="#F5F5F5" fill-opacity="0.2"/>
<path d="M15.4167 22.0833L5.83333 12.5L15.4167 2.91667L12.5 0L0 12.5L12.5 25L15.4167 22.0833ZM26.25 22.0833L35.8333 12.5L26.25 2.91667L29.1667 0L41.6667 12.5L29.1667 25L26.25 22.0833Z" transform="translate(304.342 212.316)" fill="#F5F5F5" fill-opacity="0.2"/>
<path d="M0 29.6927V37.5052H7.8125L30.8542 14.4635L23.0417 6.65104L0 29.6927ZM36.8958 8.42188C37.7083 7.60938 37.7083 6.29688 36.8958 5.48438L32.0208 0.609375C31.2083 -0.203125 29.8958 -0.203125 29.0833 0.609375L25.2708 4.42188L33.0833 12.2344L36.8958 8.42188Z" transform="translate(306.25 306.245)" fill="#F5F5F5" fill-opacity="0.2"/>
<path d="M13.5417 29.1667H9.375V14.5833H13.5417V29.1667ZM21.875 29.1667H17.7083V8.33333H21.875V29.1667ZM30.2083 29.1667H26.0417V20.8333H30.2083V29.1667ZM35.4167 33.5417H4.16667V4.16667H35.4167V33.5417ZM35.4167 0H4.16667C1.875 0 0 1.875 0 4.16667V33.3333C0 35.625 1.875 37.5 4.16667 37.5H35.4167C37.7083 37.5 39.5833 35.625 39.5833 33.3333V4.16667C39.5833 1.875 37.7083 0 35.4167 0Z" transform="translate(255.208 356.25)" fill="#F5F5F5" fill-opacity="0.2"/>
<path d="M29.1667 22.9167H18.75V33.3333H29.1667V22.9167ZM27.0833 0V4.16667H10.4167V0H6.25V4.16667H4.16667C1.85417 4.16667 0.0208333 6.04167 0.0208333 8.33333L0 37.5C0 39.7917 1.85417 41.6667 4.16667 41.6667H33.3333C35.625 41.6667 37.5 39.7917 37.5 37.5V8.33333C37.5 6.04167 35.625 4.16667 33.3333 4.16667H31.25V0H27.0833ZM33.3333 37.5H4.16667V14.5833H33.3333V37.5Z" transform="translate(356.25 252.083)" fill="#F5F5F5" fill-opacity="0.2"/>
<path d="M40.3125 12.5833C38.8958 5.39583 32.5833 0 25 0C18.9792 0 13.75 3.41667 11.1458 8.41667C4.875 9.08333 0 14.3958 0 20.8333C0 27.7292 5.60417 33.3333 12.5 33.3333H39.5833C45.3333 33.3333 50 28.6667 50 22.9167C50 17.4167 45.7292 12.9583 40.3125 12.5833ZM29.1667 18.75V27.0833H20.8333V18.75H14.5833L25 8.33333L35.4167 18.75H29.1667Z" transform="translate(350 358)" fill="#F5F5F5" fill-opacity="0.2"/>
<path d="M41.6667 4L38.7292 1.0625L32.7917 7.75C28.5 2.91667 22.5625 0 15.8542 0C9.83333 0 4.3125 2.41667 0 6.25L2.95833 9.20833C6.5 6.10417 10.9792 4.16667 15.8542 4.16667C21.5625 4.16667 26.4583 6.79167 29.9583 10.9167L23.9583 17.6667L15.625 9.33333L0 24.9792L3.125 28.1042L15.625 15.5833L23.9583 23.9167L32.3958 14.4375C33.9583 17.25 35 20.4792 35.3958 23.9167H39.5833C39.125 19.125 37.6042 14.7708 35.3333 11.125L41.6667 4Z" transform="translate(404.167 210.417)" fill="#F5F5F5" fill-opacity="0.2"/>
<path d="M18.75 0V41.6667C8.1875 40.625 0 31.6875 0 20.8333C0 9.97917 8.1875 1.04167 18.75 0ZM22.9792 0V18.7292H41.6667C40.6875 8.85417 32.8333 0.979167 22.9792 0ZM22.9792 22.9375V41.6667C32.8542 40.6875 40.6875 32.8125 41.6667 22.9375H22.9792Z" transform="translate(453.78 255.454)" fill="#F5F5F5" fill-opacity="0.2"/>
<path d="M0 9.48438L4.16667 13.651C14.5208 3.29688 31.3125 3.29688 41.6667 13.651L45.8333 9.48438C33.1875 -3.16146 12.6667 -3.16146 0 9.48438ZM16.6667 26.151L22.9167 32.401L29.1667 26.151C25.7292 22.6927 20.125 22.6927 16.6667 26.151ZM8.33333 17.8177L12.5 21.9844C18.25 16.2344 27.5833 16.2344 33.3333 21.9844L37.5 17.8177C29.4583 9.77604 16.3958 9.77604 8.33333 17.8177Z" transform="translate(402.083 309.266)" fill="#F5F5F5" fill-opacity="0.2"/>
<path d="M15.4167 22.0833L5.83333 12.5L15.4167 2.91667L12.5 0L0 12.5L12.5 25L15.4167 22.0833ZM26.25 22.0833L35.8333 12.5L26.25 2.91667L29.1667 0L41.6667 12.5L29.1667 25L26.25 22.0833Z" transform="translate(504.342 212.316)" fill="#F5F5F5" fill-opacity="0.2"/>
<path d="M0 29.6927V37.5052H7.8125L30.8542 14.4635L23.0417 6.65104L0 29.6927ZM36.8958 8.42188C37.7083 7.60938 37.7083 6.29688 36.8958 5.48438L32.0208 0.609375C31.2083 -0.203125 29.8958 -0.203125 29.0833 0.609375L25.2708 4.42188L33.0833 12.2344L36.8958 8.42188Z" transform="translate(506.25 306.245)" fill="#F5F5F5" fill-opacity="0.2"/>
<path d="M13.5417 29.1667H9.375V14.5833H13.5417V29.1667ZM21.875 29.1667H17.7083V8.33333H21.875V29.1667ZM30.2083 29.1667H26.0417V20.8333H30.2083V29.1667ZM35.4167 33.5417H4.16667V4.16667H35.4167V33.5417ZM35.4167 0H4.16667C1.875 0 0 1.875 0 4.16667V33.3333C0 35.625 1.875 37.5 4.16667 37.5H35.4167C37.7083 37.5 39.5833 35.625 39.5833 33.3333V4.16667C39.5833 1.875 37.7083 0 35.4167 0Z" transform="translate(455.208 356.25)" fill="#F5F5F5" fill-opacity="0.2"/>
<path d="M29.1667 22.9167H18.75V33.3333H29.1667V22.9167ZM27.0833 0V4.16667H10.4167V0H6.25V4.16667H4.16667C1.85417 4.16667 0.0208333 6.04167 0.0208333 8.33333L0 37.5C0 39.7917 1.85417 41.6667 4.16667 41.6667H33.3333C35.625 41.6667 37.5 39.7917 37.5 37.5V8.33333C37.5 6.04167 35.625 4.16667 33.3333 4.16667H31.25V0H27.0833ZM33.3333 37.5H4.16667V14.5833H33.3333V37.5Z" transform="translate(556.25 252.083)" fill="#F5F5F5" fill-opacity="0.2"/>
<path d="M40.3125 12.5833C38.8958 5.39583 32.5833 0 25 0C18.9792 0 13.75 3.41667 11.1458 8.41667C4.875 9.08333 0 14.3958 0 20.8333C0 27.7292 5.60417 33.3333 12.5 33.3333H39.5833C45.3333 33.3333 50 28.6667 50 22.9167C50 17.4167 45.7292 12.9583 40.3125 12.5833ZM29.1667 18.75V27.0833H20.8333V18.75H14.5833L25 8.33333L35.4167 18.75H29.1667Z" transform="translate(550 358)" fill="#F5F5F5" fill-opacity="0.2"/>
</svg>
